{"title":"Barbie Star Light Adnventure 2016 Movies DVDRip XviD New ~ ☻rDX☻","uid":15725154,"size":739673899,"categoryP":"video","categoryS":"movies","magnet":"?xt=urn:btih:faacfd01f5d12c817adfcae9817792bb8329e7e0&amp;dn=Barbie+Star+Light+Adnventure+2016+Movies+DVDRip+XviD+New+%7E+%E2%98%BBrDX%E2%98%BB&amp;tr=udp%3A%2F%2Ftracker.leechers-paradise.org%3A6969&amp;tr=udp%3A%2F%2Fzer0day.ch%3A1337&amp;tr=udp%3A%2F%2Fopen.demonii.com%3A1337&amp;tr=udp%3A%2F%2Ftracker.coppersurfer.tk%3A6969&amp;tr=udp%3A%2F%2Fexodus.desync.com%3A6969","seeders":4,"leechers":3,"uploader":"basicssom","files":2,"time":1472706000,"description":"----------------------------------------------------------------\r\nBarbie Star Light Adnventure 2016 English Movies DVDRip XviD AAC New Source with Sample ☻rDX☻\r\n\r\nSCREEN SHOTS &amp; POSTER:\r\n  \nhttp://postimage.co.nr/2016/9/shoping/index.htm  \nhttp://postimage.co.nr/2016/9/shoping/1.html  \nhttp://postimage.co.nr/2016/9/shoping/2.html  \nhttp://postimage.co.nr/2016/9/shoping/3.html  \nhttp://postimage.co.nr/2016/9/shoping/4.html  \nhttp://postimage.co.nr/2016/9/shoping/5.html  \nhttp://postimage.co.nr/2016/9/shoping/6.html  \nhttp://postimage.co.nr/2016/9/shoping/7.html  \nhttp://postimage.co.nr/2016/9/shoping/8.html  \nhttp://postimage.co.nr/2016/9/shoping/9.html  \nhttp://postimage.co.nr/2016/9/shoping/10.html\r\n\r\nFormat                                   : Matroska\r\nFormat version                           : Version 4 / Version 2\r\nFile size                                : 698 MiB\r\nDuration                                 : 1 h 19 min\r\nOverall bit rate mode                    : Constant\r\nOverall bit rate                         : 1 229 kb/s\r\nMovie name                               : Barbie Star Light Adnventure 2016 English Movies DVDRip XviD AAC New Source ☻rDX☻\r\n\r\nVideo\r\nID                                       : 2\r\nFormat                                   : AVC\r\nFormat/Info                              : Advanced Video Codec\r\nFormat profile                           :   \r\nFormat settings, CABAC                   : Yes\r\nFormat settings, ReFrames                : 2 frames\r\nFormat settings, GOP                     : M=1, N=12\r\nCodec ID                                 : V_MPEG4/ISO/AVC\r\nDuration                                 : 1 h 19 min\r\nBit rate mode                            : Constant\r\nBit rate                                 : 1 102 kb/s\r\nWidth                                    : 720 pixels\r\nHeight                                   : 400 pixels\r\nDisplay aspect ratio                     : 16:9\r\nFrame rate mode                          : Constant\r\nFrame rate                               : 23.976 (24000/1001) FPS\r\nColor space                              : YUV\r\nChroma subsampling                       : 4:2:0\r\nBit depth                                : 8 bits\r\nScan type                                : Progressive\r\nBits/(Pixel*Frame)                       : 0.160\r\nStream size                              : 612 MiB (88%)\r\nTitle                                    : ☻rDX☻\r\nDefault                                  : Yes\r\nForced                                   : No\r\n\r\nAudio\r\nID                                       : 1\r\nFormat                                   : MPEG Audio\r\nFormat version                           : Version 1\r\nFormat profile                           : Layer 3\r\nMode                                     : Joint stereo\r\nCodec ID                                 : A_MPEG/L3\r\nCodec ID/Hint                            : MP3\r\nDuration                                 : 1 h 19 min\r\nBit rate mode                            : Constant\r\nBit rate                                 : 128 kb/s\r\nChannel(s)                               : 2 channels\r\nSampling rate                            : 48.0 kHz\r\nCompression mode                         : Lossy\r\nStream size                              : 72.7 MiB (10%)\r\nTitle                                    : ☻rDX☻\r\nWriting library                          : LAME3.98\r\nDefault                                  : Yes\r\nForced                                   : No\r\n\r\nIMDB \nhttp://www.imdb.com/title/tt5502946/","torrent":{"xt":"urn:btih:faacfd01f5d12c817adfcae9817792bb8329e7e0","amp;dn":"Barbie+Star+Light+Adnventure+2016+Movies+DVDRip+XviD+New+%7E+%E2%98%BBrDX%E2%98%BB","amp;tr":["udp%3A%2F%2Ftracker.leechers-paradise.org%3A6969","udp%3A%2F%2Fzer0day.ch%3A1337","udp%3A%2F%2Fopen.demonii.com%3A1337","udp%3A%2F%2Ftracker.coppersurfer.tk%3A6969","udp%3A%2F%2Fexodus.desync.com%3A6969"],"infoHash":"faacfd01f5d12c817adfcae9817792bb8329e7e0","infoHashBuffer":{"type":"Buffer","data":[250,172,253,1,245,209,44,129,122,223,202,233,129,119,146,187,131,41,231,224]},"announce":[],"urlList":[]}}